<svg xmlns="http://www.w3.org/2000/svg" viewBox="0 0 14.01 20.72"><defs><style>.cls-1{fill:#fff;}</style></defs><title>Ресурс 1</title><g id="Слой_2" data-name="Слой 2"><g id="Слой_1-2" data-name="Слой 1"><g id="Home_Page" data-name="Home Page"><g id="Group_76" data-name="Group 76"><g id="Repeat_Grid_2" data-name="Repeat Grid 2"><g id="Group_74" data-name="Group 74"><g id="Group_72" data-name="Group 72"><g id="Group_215" data-name="Group 215"><path id="Union_4" data-name="Union 4" class="cls-1" d="M2.72,20.43l-.21-.22a1,1,0,0,1,0-1.41h0l.24-.24a1,1,0,0,1,.38-.24l-.73-.72a.8.8,0,0,1-.23.37l-.25.25a1,1,0,0,1-1.41,0L.29,18a1,1,0,0,1,0-1.41l.25-.25a1,1,0,0,1,.37-.23l-.6-.6a.44.44,0,0,1,0-.63L7.89,7.28a.44.44,0,0,1,.63,0h0l1.3,1.3.69-.7a.39.39,0,0,0,0-.55L9.31,6.09a2.35,2.35,0,0,1,0-3.25L11.94.14h0a.43.43,0,0,1,.63,0l1.3,1.34a.44.44,0,0,1,0,.62L11.79,4.25a.32.32,0,0,0,0,.43l1.34,1.38a2.35,2.35,0,0,1,.12,3.13L12,10.72l1.47,1.47a.44.44,0,0,1,0,.62h0L5.85,20.41a.47.47,0,0,1-.64,0l-.6-.6a1.1,1.1,0,0,1-.23.37l-.25.25a1,1,0,0,1-1.41,0ZM1.25,15.18l4.28,4.28L6,19,1.73,14.69Zm1.12-1.12,4.28,4.28,4.72-4.72L7.09,9.34ZM7.72,8.71,12,13l.49-.49L8.21,8.22ZM10,3.46a1.44,1.44,0,0,0,0,2l1.19,1.23a1.29,1.29,0,0,1,0,1.8l-.69.71.89.89,1.23-1.47a1.48,1.48,0,0,0-.07-1.94L11.16,5.31a1.23,1.23,0,0,1,0-1.69l1.78-1.83-.68-.7Z"/></g></g></g></g></g></g></g></g></svg>